<svg version="1.1" id="Layer_1" xmlns="http://www.w3.org/2000/svg" xmlns:xlink="http://www.w3.org/1999/xlink" x="0px" y="0px"
	 width="100%" viewBox="0 0 576 576" enable-background="new 0 0 576 576" xml:space="preserve">
<path fill="#000000" opacity="1.000000" stroke="none" 
	d="
M159.306335,62.213470 
	C187.933990,46.446960 218.209930,36.334961 250.098907,32.014984 
	C301.231812,25.088049 350.755951,31.726610 397.695374,53.683037 
	C472.524384,88.685112 520.580322,146.582321 542.675232,225.956329 
	C550.970337,255.755661 551.973999,286.321381 549.433960,317.034088 
	C545.813538,360.810028 531.623779,400.923370 506.466888,436.863312 
	C466.098083,494.535461 412.081970,532.360107 342.712067,546.991455 
	C322.515503,551.251221 302.037689,554.087585 281.326080,553.238220 
	C214.606476,550.501953 155.934036,527.590515 106.692764,482.075256 
	C67.017311,445.402008 41.530704,400.316772 29.378162,347.753510 
	C23.104652,320.618744 22.187859,293.063538 24.618383,265.398315 
	C28.059513,226.229980 40.658882,189.991653 60.974396,156.513947 
	C85.250977,116.508888 118.047081,85.157990 159.306335,62.213470 
M279.843903,169.258331 
	C285.506561,167.337326 290.982819,164.726028 298.295959,163.447205 
	C291.597839,177.819702 282.764435,189.406174 277.087372,203.066925 
	C289.459320,206.738968 301.819336,206.244843 314.000000,210.321259 
	C305.170288,221.040207 294.343811,228.684052 285.313721,239.186035 
	C296.027893,243.861984 306.111938,248.262924 317.093323,253.055481 
	C304.006531,263.364227 289.679810,268.526978 274.947083,273.919128 
	C281.569672,282.641815 291.622284,285.099243 299.036041,291.781891 
	C295.032379,295.604919 290.371094,297.024139 286.202576,299.258301 
	C282.554382,301.213654 277.054901,300.879333 275.185150,304.451050 
	C273.155121,308.328979 276.924713,312.523621 278.053040,316.601013 
	C279.636627,322.323792 279.415466,322.509521 273.474030,323.463776 
	C270.169159,323.994537 265.585571,322.831818 263.903900,326.269348 
	C262.098480,329.959808 266.249817,332.414917 268.153107,335.163147 
	C271.381348,339.824493 271.243958,340.343597 265.937256,342.485809 
	C261.502106,344.276184 256.003662,344.312256 252.839172,348.208099 
	C247.673737,354.567352 241.941162,359.782135 234.035461,362.449371 
	C231.173492,363.414917 230.971558,366.136566 231.291916,368.764282 
	C231.567520,371.024963 232.339539,373.256897 234.838699,373.621216 
	C245.740265,375.210236 255.926163,379.514343 266.630859,381.806854 
	C271.381775,382.824280 273.857056,385.626617 275.233734,390.304504 
	C285.046234,423.647430 294.323914,457.129974 302.292328,490.966278 
	C302.699615,492.695770 302.957825,494.432098 305.090149,496.160156 
	C305.676086,493.026398 306.406891,490.481323 306.593414,487.897003 
	C307.724152,472.230438 311.814453,457.476868 319.530029,443.728882 
	C323.513428,436.631073 323.776581,436.334747 331.614197,437.060425 
	C318.263672,429.790985 306.680908,420.613251 299.492767,406.708893 
	C297.652008,407.939117 296.732574,409.307220 294.977783,408.966858 
	C282.085602,406.466217 275.657166,393.720520 282.702240,384.403351 
	C286.727264,379.080170 286.319672,375.350800 282.952179,370.829742 
	C276.568634,362.259491 276.326111,353.102051 279.738831,343.356171 
	C282.160675,336.439941 284.103546,329.397675 283.775879,321.901398 
	C283.625488,318.459290 285.296173,315.432892 287.220947,312.676849 
	C290.559113,307.897003 293.838470,303.057587 297.471344,298.505585 
	C307.232147,286.275177 318.109161,275.431244 333.258392,269.809906 
	C347.402954,264.561371 362.021545,262.813232 376.938293,263.705963 
	C397.578125,264.941132 415.725037,272.866760 429.394440,288.172119 
	C441.492554,301.718079 451.350250,316.910858 452.060150,336.426178 
	C452.530396,349.353424 455.076141,362.238159 450.786346,374.964966 
	C449.970306,377.386017 450.544830,379.435272 451.805450,381.585693 
	C458.060181,392.255524 454.907623,402.125488 443.636810,407.331940 
	C441.510101,408.314331 439.222076,409.083313 437.834076,411.075073 
	C431.969269,419.490936 424.878510,426.691101 416.684784,432.840302 
	C414.952332,434.140442 413.736420,435.849457 415.368195,437.937531 
	C422.072296,446.516418 425.308929,456.623962 428.390564,467.009521 
	C427.815582,461.748688 431.767487,459.349121 434.779633,456.528259 
	C456.607880,436.086273 475.439423,413.348846 488.342957,386.159454 
	C500.646515,360.234283 508.864075,333.263672 510.203674,304.277588 
	C510.914032,288.906586 511.011688,273.537598 509.322388,258.374420 
	C506.330353,231.517349 497.962250,206.090729 485.082520,182.245956 
	C437.565948,94.276726 339.326019,45.848633 238.075287,68.031921 
	C165.025497,84.036583 112.662781,127.512329 80.858917,195.142166 
	C62.824966,233.490738 57.652313,274.306488 62.712914,316.057037 
	C67.337921,354.213837 81.525169,389.043610 104.314697,420.197815 
	C111.646927,430.221283 119.928970,439.414551 128.667877,449.060638 
	C129.493759,446.684631 130.158463,445.000122 130.668457,443.270020 
	C136.029526,425.083893 141.407730,406.902557 146.667862,388.687195 
	C147.545975,385.646393 149.244766,384.029755 152.254578,383.060028 
	C164.136292,379.231659 175.944260,375.174622 187.784271,371.216461 
	C190.175812,370.416931 192.520905,369.859314 192.680084,366.485535 
	C192.846680,362.954803 190.531052,362.011475 188.023270,360.905548 
	C181.446259,358.005035 175.131668,354.670868 169.999161,349.144653 
	C168.932739,354.046875 164.528046,354.043549 161.286118,355.605286 
	C157.892288,357.240265 156.251251,355.546204 155.872849,352.247955 
	C155.513245,349.113495 155.562714,345.955750 154.814041,342.835663 
	C154.121964,339.951416 153.094894,338.564514 149.708038,339.132111 
	C145.459442,339.844147 141.092392,339.878967 136.771805,340.123352 
	C132.573715,340.360809 131.007507,338.560791 132.100571,334.311279 
	C133.465759,329.003937 134.419617,323.591003 135.773483,318.280396 
	C136.625381,314.938782 135.321671,313.378143 132.245972,312.441010 
	C126.834618,310.792206 121.468147,308.987885 116.121140,307.138123 
	C108.362671,304.454041 108.105667,303.314636 113.953819,297.271973 
	C118.125664,292.961365 122.247253,288.576630 126.710197,284.581207 
	C130.337494,281.333862 129.990417,278.793152 126.823730,275.464966 
	C119.522774,267.791534 110.584747,263.470337 100.329460,261.504974 
	C98.285858,261.113342 95.945374,261.156799 94.866081,258.731598 
	C95.498871,256.554535 97.382126,255.622025 98.957809,254.468918 
	C106.083893,249.254013 113.353569,244.230347 120.381607,238.887955 
	C126.518204,234.223190 126.603065,233.012115 122.573692,226.514191 
	C117.702484,218.658691 111.257446,212.140625 104.856621,205.569641 
	C102.844048,203.503525 100.319115,201.703018 99.479950,198.329895 
	C100.470085,198.061676 101.216637,197.789841 101.987083,197.661102 
	C114.963959,195.492691 128.160172,195.586105 141.180542,193.876480 
	C146.752594,193.144852 147.561996,192.039246 146.370010,186.455978 
	C144.733200,178.789093 142.455551,171.328308 139.037582,164.221588 
	C137.791107,161.629929 135.943665,159.110046 136.331207,155.568237 
	C138.979492,155.282379 141.375549,155.669525 143.800522,156.255753 
	C152.427368,158.341232 160.607208,161.628159 168.548767,165.509979 
	C172.339798,167.363007 174.291229,166.252258 175.598770,162.374664 
	C178.478363,153.835114 180.404907,145.115479 181.833771,136.223389 
	C182.443344,132.429794 181.794037,128.214493 184.787918,124.227821 
	C196.306168,133.983109 204.282227,146.562729 214.350571,158.072754 
	C226.222961,145.155243 238.935059,134.278809 254.838516,127.707657 
	C256.633392,130.706619 256.091278,133.261093 256.106384,135.702438 
	C256.176300,147.014542 255.951172,158.336319 258.297913,169.504044 
	C259.408752,174.790436 260.670593,175.655807 265.866821,174.029404 
	C270.314941,172.637177 274.702515,171.051590 279.843903,169.258331 
z"/>
</svg>