<svg version="1.1" id="Layer_1" xmlns="http://www.w3.org/2000/svg" xmlns:xlink="http://www.w3.org/1999/xlink" x="0px" y="0px"
	 width="100%" viewBox="0 0 1024 512" enable-background="new 0 0 1024 512" xml:space="preserve">
<path fill="#000000" opacity="1.000000" stroke="none" 
	d="
M572.942017,458.140442 
	C551.242004,464.026276 529.532227,468.443359 507.482635,466.935150 
	C418.761871,460.866638 354.452911,418.480103 317.788116,336.582001 
	C303.157928,303.902557 298.823822,269.175964 303.061554,233.917953 
	C309.678589,178.863480 334.457611,133.036484 376.958923,97.060013 
	C407.257263,71.413101 442.314728,55.870270 481.326691,50.088699 
	C535.612122,42.043610 586.001282,53.421764 631.734741,83.946869 
	C678.637878,115.252693 708.294373,159.018784 719.517456,213.879807 
	C732.885559,279.226074 719.001465,338.982483 675.758240,390.724854 
	C648.466309,423.380798 614.529419,446.331726 572.942017,458.140442 
M579.161926,87.402924 
	C495.483582,54.215832 399.170593,86.447533 354.602509,167.624603 
	C312.461639,244.380600 334.095428,333.101318 386.037476,381.945190 
	C387.796936,379.992706 388.189453,377.483856 388.879059,375.143158 
	C392.688599,362.212372 396.521423,349.287506 400.176697,336.312805 
	C401.141327,332.888672 403.062164,331.092010 406.438934,330.032501 
	C415.494293,327.191101 424.430389,323.971954 433.453552,321.024292 
	C435.589142,320.326660 436.934479,319.346466 437.119202,316.948944 
	C437.309631,314.477142 435.521271,313.858582 433.857361,313.150696 
	C428.933868,311.056213 424.472443,308.182159 420.100464,304.920776 
	C419.447662,305.368408 418.936005,305.761780 418.385681,306.090332 
	C410.039246,311.073303 408.944427,310.570435 407.565857,301.011017 
	C407.025482,297.263885 405.913757,294.752991 401.171417,295.963501 
	C398.495331,296.646545 395.535950,296.198975 392.705841,296.304657 
	C389.265808,296.433167 388.258026,294.656586 388.972595,291.567078 
	C389.797485,288.000793 390.679535,284.447693 391.541229,280.889954 
	C392.420990,277.257782 391.438354,274.837921 387.521729,273.741516 
	C383.197632,272.531128 378.932465,271.069580 374.724457,269.496063 
	C370.325348,267.851074 370.041992,266.678558 373.287720,263.163696 
	C376.789764,259.371368 380.298553,255.528168 384.221405,252.198441 
	C387.791504,249.168137 387.058533,246.923508 384.186920,244.100677 
	C378.918396,238.921783 372.722748,235.704849 365.530060,234.072327 
	C363.327332,233.572403 360.458374,233.799454 359.144379,231.289948 
	C359.813263,229.031174 361.579803,228.230240 363.020630,227.181335 
	C368.408051,223.259293 373.911194,219.494614 379.260345,215.522034 
	C384.530060,211.608505 384.657837,210.481155 380.974396,204.905075 
	C376.817535,198.612396 371.569916,193.253448 366.377380,187.837875 
	C365.093567,186.498932 363.106659,185.411041 363.408020,183.037613 
	C364.953644,181.531525 366.870544,181.839874 368.654236,181.687775 
	C377.270264,180.953171 385.897980,180.340378 394.502319,179.489532 
	C400.804199,178.866379 401.287720,177.969772 399.986023,171.902649 
	C398.686249,165.844467 396.670868,160.059402 394.037598,154.452103 
	C393.253815,152.783112 391.645233,151.121094 392.973938,148.615692 
	C395.190674,148.386475 397.417114,148.774277 399.684174,149.359726 
	C406.010223,150.993301 412.009033,153.490677 417.847656,156.336304 
	C421.060211,157.902023 422.610168,157.141861 423.784760,153.846924 
	C426.201019,147.068878 427.545258,140.072342 428.744629,133.017883 
	C429.253235,130.026108 428.880768,126.745735 431.011139,124.208534 
	C433.433044,124.610229 434.612885,126.273468 435.955994,127.739998 
	C441.475220,133.766403 446.707214,140.036667 451.501678,146.648651 
	C453.888794,149.940689 455.743103,149.985504 458.462128,146.881241 
	C465.344055,139.024231 473.721069,133.012619 482.942749,128.162811 
	C484.370178,127.412125 485.667267,126.113838 487.584900,126.882324 
	C488.756500,128.688568 488.243713,130.743271 488.251099,132.686844 
	C488.285278,141.672409 488.291534,150.632751 490.120117,159.516190 
	C490.954834,163.571548 492.978882,164.386581 496.518066,163.133591 
	C499.970825,161.911194 503.413483,160.653061 506.902283,159.541428 
	C511.551941,158.059952 515.943787,155.655762 521.864746,155.030487 
	C517.277405,166.317398 509.933533,175.319092 505.406952,186.219162 
	C514.824036,189.991516 525.045349,188.535950 534.437744,192.576477 
	C527.836609,201.396225 518.922363,207.009750 512.138550,215.377518 
	C520.229858,219.819962 528.896973,221.831924 536.621948,226.927795 
	C526.709106,235.461853 514.984619,238.870163 503.658752,243.674683 
	C508.972076,250.277725 517.097656,252.008911 522.482544,257.575867 
	C519.998901,260.861389 516.629456,261.643127 513.770264,263.199554 
	C510.572479,264.940308 505.907654,264.717010 504.048706,267.822540 
	C502.052917,271.156647 505.430420,274.658112 506.288757,278.115387 
	C507.104004,281.399017 506.044556,282.842560 502.890015,283.185089 
	C500.131927,283.484558 497.245056,283.335938 494.949219,285.222900 
	C494.636841,288.388458 496.436615,290.440369 498.170074,292.429596 
	C500.728394,295.365356 499.766907,296.963318 496.492584,298.295776 
	C492.974121,299.727570 488.667297,299.779938 486.052032,302.781738 
	C481.722076,307.751801 477.167969,312.172241 470.777954,314.436920 
	C468.684967,315.178619 468.055176,317.265411 468.477631,319.463928 
	C468.823273,321.262543 469.898193,322.280945 471.750702,322.764221 
	C479.466125,324.777039 487.095337,327.153107 494.866058,328.910095 
	C500.250244,330.127502 502.905670,333.115112 504.383057,338.354156 
	C510.207581,359.008698 516.081421,379.647308 521.336365,400.456421 
	C523.104309,407.457184 524.829163,414.468842 526.573792,421.475494 
	C529.624451,403.727783 531.691650,385.894928 544.689819,371.591919 
	C535.654175,366.425354 528.223633,359.425659 523.160522,350.277527 
	C518.530762,351.986603 513.693970,350.502411 510.488159,346.656006 
	C507.000153,342.471008 505.901764,335.831940 509.307709,331.816071 
	C512.967529,327.500916 512.001770,324.182831 509.216095,320.363770 
	C504.476105,313.865417 504.224640,306.860596 506.836792,299.475800 
	C508.446960,294.923767 510.108276,290.300690 509.941711,285.402283 
	C509.780151,280.650330 511.215637,276.573669 513.976318,272.835663 
	C516.846375,268.949554 519.550659,264.930817 522.583740,261.177216 
	C532.255188,249.208252 543.857910,240.157074 559.382935,236.993271 
	C567.580322,235.322708 575.820496,234.166534 584.169434,234.755264 
	C600.940918,235.937912 615.649231,242.339554 627.094421,254.577011 
	C644.944641,273.662872 649.026978,296.756378 644.659912,321.853546 
	C644.204102,324.473206 643.717163,326.955658 645.135742,329.600647 
	C649.890198,338.465210 647.610413,345.429504 638.552795,350.073151 
	C636.454529,351.148895 634.335815,352.108643 632.956055,354.107849 
	C628.757324,360.191498 623.777710,365.510376 617.814880,369.910828 
	C616.501892,370.879791 614.616455,372.249329 615.799988,373.957855 
	C619.969727,379.977356 622.632141,386.729614 625.490906,394.204132 
	C675.817566,350.310486 698.977173,295.905304 690.304932,230.505173 
	C681.270447,162.372818 642.467590,115.365273 579.161926,87.402924 
z"/>
</svg>